<?xml version="1.0" encoding="utf-8"?>
<!-- Generator: Adobe Illustrator 27.0.0, SVG Export Plug-In . SVG Version: 6.00 Build 0)  -->
<svg version="1.1" id="Layer_1" xmlns="http://www.w3.org/2000/svg" xmlns:xlink="http://www.w3.org/1999/xlink" x="0px" y="0px"
	 viewBox="0 0 338.5 243.1" style="enable-background:new 0 0 338.5 243.1;" xml:space="preserve">
<style type="text/css">
	.st0{fill:#D1D3D4;}
	.st1{fill-rule:evenodd;clip-rule:evenodd;fill:#2E3192;}
	.st2{fill:#FFFFFF;}
	.st3{fill:#2E3192;}
</style>
<g>
	<g>
		<path class="st0" d="M286,62.5c-0.4-1.1-0.9-2.3-1.4-3.4c-0.3-0.8-0.6-1.5-1-2.2c-0.3-0.7-0.7-1.4-1.1-2.2
			c-0.1-0.3-0.3-0.6-0.5-0.9c-0.3-0.5-0.5-1-0.8-1.6c-0.6-1.2-1.3-2.3-2-3.4c-0.8-1.3-1.6-2.5-2.4-3.7c-0.8-1.2-1.6-2.3-2.5-3.4
			c-11.7-15.3-28.6-26.9-49.5-33.6c-29.4-9.4-63.1-7.8-94.8,4.4C95.2,26,68.6,50.3,54.3,78h2.2c14.1-27,40.2-50.5,74.1-63.7
			c17.8-6.9,36.2-10.4,54.1-10.4c13.5,0,26.8,2,39.3,6c12.8,4.1,24.1,10.1,33.5,17.6l0,0c1.2,1,2.4,2,3.6,3c2.7,2.4,5.2,4.9,7.5,7.5
			c1.4,1.6,2.7,3.2,3.9,4.8c0.4,0.4,0.7,0.9,1,1.4c0.5,0.7,1,1.3,1.4,2c0.6,0.9,1.2,1.8,1.8,2.7c0.2,0.3,0.4,0.7,0.6,1
			c0.7,1.1,1.4,2.3,2,3.5c1.7,3.1,3.2,6.4,4.5,9.7c1.9,4.8,3.3,9.8,4.2,14.8h2C289.4,72.7,288,67.5,286,62.5L286,62.5z M250.5,174
			c-13.2,12-29.1,21.8-46.8,28.6c-31.3,12.1-64.4,13.7-93.4,4.4c-12.8-4.1-24.1-10.1-33.6-17.7c-1.1-0.9-2.3-1.9-3.3-2.8
			c-0.2-0.2-0.4-0.4-0.6-0.5c-0.8-0.8-1.7-1.5-2.5-2.4c-0.6-0.6-1.2-1.2-1.8-1.8c-0.4-0.4-0.7-0.7-1.1-1.1c-1.4-1.5-2.7-3-4-4.5
			c-0.6-0.7-1.1-1.4-1.7-2.1h-2.5c2,2.8,4.3,5.5,6.7,8c0.9,1,1.9,2,2.8,2.9c1,1,2,2,3.1,2.9c1.1,1,2.2,1.9,3.3,2.8
			c0.5,0.4,1.1,0.9,1.6,1.3c0.2,0.1,0.3,0.2,0.5,0.4c0.7,0.5,1.4,1.1,2.1,1.6c1.1,0.8,2.3,1.6,3.4,2.4c8,5.3,17,9.5,26.9,12.7
			c12.7,4.1,26.1,6.1,39.9,6.1c18.2,0,36.8-3.5,54.9-10.5c18.7-7.2,35.3-17.7,49-30.5L250.5,174L250.5,174z"/>
		<path class="st0" d="M291.5,69c-0.5-1.2-1-2.4-1.5-3.5c-0.6-1.5-1.3-3-2.1-4.4c-0.1-0.2-0.2-0.5-0.4-0.7c-0.9-1.8-2-3.6-3-5.3
			c-0.7-1.1-1.4-2.2-2.1-3.3c-0.9-1.3-1.7-2.5-2.7-3.7c-1.7-2.2-3.5-4.4-5.4-6.4c-4.8-5.2-10.4-9.9-16.5-14l0,0
			c-8.1-5.4-17.4-9.8-27.5-13.1c-29.4-9.4-63.1-7.8-94.8,4.4c-32.1,12.4-57.2,34-72.1,59.1h2.3C80.4,53.9,105,33,136.2,20.9
			c17.8-6.9,36.2-10.4,54.1-10.4c13.5,0,26.8,2,39.3,6c12.8,4.1,24.1,10.1,33.5,17.6l0,0c3.4,2.7,6.6,5.7,9.5,8.9
			c0.6,0.6,1.2,1.3,1.7,1.9c1.3,1.5,2.5,2.9,3.7,4.5c0.3,0.4,0.6,0.8,0.9,1.2c0.6,0.8,1.2,1.6,1.7,2.4c0.8,1.1,1.5,2.2,2.2,3.3
			c0.6,0.9,1.1,1.9,1.6,2.8c1.9,3.4,3.6,6.9,5,10.6c1.1,2.7,2,5.5,2.7,8.3h2.1C293.6,74.9,292.6,71.9,291.5,69z M262.6,174
			c-14.1,14.6-32.2,26.9-53.4,35.1c-18.1,7-36.5,10.3-54,10.3c-27.7,0-53.3-8.2-72.3-23.2c-1.4-1.1-2.8-2.2-4.1-3.4
			c-1.1-1-2.2-2-3.2-3c-0.6-0.6-1.1-1.1-1.7-1.7c-0.4-0.4-0.8-0.8-1.2-1.3c-1.3-1.4-2.6-2.9-3.8-4.4c-0.5-0.6-1-1.2-1.4-1.8
			c-1.7-2.1-3.2-4.4-4.6-6.7h-2.4c1.7,2.8,3.5,5.5,5.5,8c1.6,2.1,3.3,4.1,5.1,6.1c0.9,1,1.9,2,2.9,3s2.1,2,3.2,3
			c1.5,1.4,3.1,2.6,4.7,3.9l0,0c0.2,0.2,0.5,0.4,0.7,0.5c1.6,1.2,3.3,2.5,5,3.6c18.6,12.5,42.3,19.3,67.6,19.3
			c17.8,0,36.5-3.4,54.8-10.4c22.1-8.6,41-21.5,55.4-37L262.6,174L262.6,174z"/>
		<path class="st0" d="M296.9,75.4c-0.5-1.1-0.9-2.3-1.4-3.4c-0.8-1.8-1.6-3.6-2.6-5.3c-1.6-3-3.3-5.9-5.3-8.7
			c-0.7-1-1.5-2.1-2.2-3.1c-1.8-2.4-3.7-4.7-5.7-6.9c-1-1-1.9-2-2.9-3c-2.5-2.5-5.2-4.8-8-6.9c-1.8-1.4-3.7-2.8-5.6-4l0,0
			c-8.1-5.4-17.4-9.8-27.5-13.1c-29.4-9.4-63.1-7.8-94.8,4.4c-28.5,11-52.3,29.5-68,52.6h2.4c15.5-22.2,38.7-40,66.3-50.7
			c17.8-6.9,36.2-10.4,54.1-10.4c13.5,0,26.8,2,39.3,6c13.1,4.2,24.7,10.4,34.3,18.3c2,1.6,3.9,3.4,5.8,5.2c1,1,2,2,3,3
			c0.5,0.6,1.1,1.2,1.6,1.8c0.8,0.9,1.5,1.8,2.3,2.7c0.7,0.8,1.3,1.6,2,2.5l0,0c0.7,1,1.5,2,2.2,3c1.4,2,2.6,4,3.8,6.1
			c1.9,3.4,3.6,7,5.1,10.7c0.2,0.6,0.5,1.2,0.7,1.8h2.1C297.6,77.1,297.3,76.3,296.9,75.4L296.9,75.4z M274,174
			c-15.1,18-35.6,32.4-59.3,41.6c-18.1,7-36.5,10.3-54.1,10.3c-28,0-54-8.4-73-23.8c-2.3-1.8-4.5-3.8-6.6-5.8
			c-1.1-1-2.1-2.1-3.1-3.2c-0.4-0.4-0.8-0.8-1.1-1.2c-0.9-1-1.7-2-2.5-3c-0.6-0.7-1.1-1.4-1.6-2.1c-0.8-1.1-1.6-2.1-2.4-3.2
			c-1.4-2-2.7-4.1-3.9-6.3c-0.6-1.1-1.2-2.2-1.8-3.3h-2.2c0.3,0.7,0.7,1.4,1.1,2.1c1.6,3,3.4,6,5.3,8.8c0.7,1.1,1.5,2.1,2.3,3.2
			c1.6,2.2,3.4,4.2,5.2,6.2l0,0c1,1.1,2.1,2.2,3.1,3.2c2.5,2.5,5.1,4.8,7.9,6.9c1.8,1.4,1.8,1.4,0,0c1.7,1.3,3.4,2.5,5.1,3.7
			c18.7,12.7,42.6,19.7,68.2,19.6c17.8,0,36.5-3.4,54.8-10.4c24.6-9.5,45.7-24.6,61.2-43.5L274,174L274,174z"/>
		<path class="st0" d="M300.7,78c-2.8-6.2-6.2-12-10.3-17.2c0,0,0,0,0-0.1c-1.5-2-3.2-3.9-4.9-5.8c-1-1.1-2-2.1-3.1-3.2
			c-1-1-2.1-2-3.2-3c-1.5-1.4-3.1-2.7-4.7-3.9c-0.2-0.2-0.5-0.4-0.7-0.6c-1.4-1.1-2.9-2.1-4.4-3.1c-31.7-21.6-78.4-26.5-123-9.2
			C120,42.1,98.4,58.5,83.2,78h2.5c14.9-18.6,35.9-34.4,61.4-44.2c18.1-7,36.5-10.3,54.1-10.3c27.7,0,53.3,8.2,72.4,23.2
			c1.4,1.1,2.7,2.2,4,3.4c1.1,1,2.2,1.9,3.2,3c0.6,0.6,1.2,1.1,1.7,1.7c0.5,0.5,1,1,1.5,1.5l0,0c1.2,1.3,2.4,2.7,3.5,4.1
			c0.5,0.6,1,1.2,1.4,1.8c2.4,3.1,4.6,6.4,6.5,9.9c1.1,1.9,2.1,3.9,3,5.9H300.7c0.1,0.2,0.2,0.4,0.3,0.6
			C300.9,78.3,300.8,78.2,300.7,78L300.7,78z M284.5,174c-15.5,21-37.9,37.8-64.4,48.1c-31.3,12.1-64.4,13.7-93.4,4.4
			c-13.1-4.2-24.6-10.4-34.2-18.2c-3.2-2.6-6.1-5.4-8.9-8.3c-0.6-0.6-1.2-1.3-1.7-1.9l0,0c-1.4-1.6-2.7-3.2-3.9-4.8
			c-0.2-0.3-0.5-0.6-0.7-0.9c-0.6-0.8-1.2-1.6-1.7-2.4c-0.8-1.1-1.5-2.2-2.2-3.3c-0.5-0.9-1.1-1.8-1.6-2.7c-1.8-3.1-3.4-6.4-4.7-9.8
			h-2.2c0.4,1.1,0.9,2.2,1.4,3.3c0.7,1.5,1.4,3,2.1,4.5c0.1,0.2,0.2,0.5,0.4,0.7c0.9,1.8,2,3.6,3,5.4c0.7,1.1,1.4,2.2,2.1,3.3
			s1.5,2.2,2.3,3.2l0,0c1.8,2.4,3.7,4.7,5.8,6.9c4.8,5.2,10.4,9.9,16.5,14l0,0c8.1,5.5,17.4,9.9,27.5,13.1c12.7,4,26.1,6.1,39.9,6.1
			c18.2,0,36.8-3.5,54.9-10.5c27.4-10.6,50.5-28.1,66.1-49.9L284.5,174L284.5,174z"/>
		<path class="st0" d="M303,78c-3.4-6.2-7.6-12-12.6-17.2c0,0,0,0,0-0.1c-0.9-0.9-1.8-1.8-2.7-2.7c-1-1-2.1-2-3.2-3
			c-1.1-1-2.2-1.9-3.3-2.8c-0.5-0.4-1-0.8-1.4-1.1c-0.2-0.2-0.5-0.4-0.7-0.5c-0.7-0.5-1.4-1.1-2.1-1.6c-1.1-0.8-2.2-1.6-3.4-2.3
			c-8-5.3-17-9.5-26.9-12.7c-29.4-9.4-63.1-7.8-94.8,4.4C129,47.3,109.1,61,94,78h2.7c14.7-16.2,33.9-29.2,55.9-37.8
			c17.8-6.9,36.2-10.4,54.1-10.4c13.5,0,26.8,2,39.3,6c12.8,4.1,24.1,10.1,33.6,17.7c1.1,0.9,2.3,1.9,3.4,2.8
			c0.2,0.2,0.4,0.4,0.6,0.6c0.9,0.8,1.8,1.6,2.6,2.4c0.6,0.6,1.2,1.1,1.7,1.7c0.4,0.4,0.7,0.8,1.1,1.1c1.4,1.5,2.7,3,4,4.5
			c2.9,3.6,5.5,7.3,7.7,11.3c0.1,0.2,0.2,0.4,0.3,0.6c-0.1-0.2-0.2-0.4-0.3-0.6L303,78L303,78z M294.4,174
			c-14.9,23.1-38.8,42.9-68.8,54.5c-31.3,12.1-64.4,13.7-93.4,4.4c-12.8-4.1-24.1-10.1-33.6-17.7l0,0c-4.1-3.3-7.9-6.9-11.2-10.7
			c-2.3-2.6-2.3-2.6,0,0c-1.3-1.5-2.5-3-3.7-4.6c-0.3-0.5-0.7-0.9-1-1.4c-0.5-0.7-1.1-1.5-1.6-2.2c-0.6-0.8-1.1-1.6-1.6-2.5
			c-0.2-0.3-0.4-0.7-0.6-1c-0.7-1.1-1.4-2.3-2-3.5c-1.7-3.1-3.2-6.4-4.5-9.7c-0.7-1.9-1.4-3.8-2-5.6h-2.1c0.6,2.1,1.4,4.3,2.2,6.4
			c0.4,1.2,0.9,2.3,1.4,3.5c0.3,0.7,0.6,1.5,1,2.2c0.3,0.7,0.7,1.5,1.1,2.2c0.1,0.3,0.3,0.5,0.4,0.8c0.3,0.6,0.6,1.1,0.9,1.7
			c0.6,1.2,1.3,2.3,2,3.4c0.7,1.2,1.5,2.4,2.3,3.5c0.8,1.2,1.7,2.5,2.6,3.7c11.7,15.3,28.6,26.9,49.5,33.6c12.7,4,26.1,6.1,39.9,6.1
			c18.2,0,36.8-3.5,54.9-10.5c30.9-12,55.4-32.5,70.5-56.4L294.4,174L294.4,174z"/>
	</g>
	<path class="st1" d="M220.2,192.3l-0.1,0.6l0.9-0.6H220.2z"/>
	<polygon class="st1" points="2.9,132.9 335.7,132.9 335.7,133.3 2.9,133.3 	"/>
	<path class="st2" d="M301,78.5c-0.1-0.2-0.2-0.4-0.3-0.6h0.1C300.8,78.2,300.9,78.3,301,78.5z"/>
	<g>
		<path class="st3" d="M4.8,150c0-1.6,0.3-3,1-4.2s1.5-2.2,2.6-3s2.3-1.4,3.6-1.8c1.4-0.4,2.8-0.6,4.2-0.6c1.1,0,2.2,0.1,3.2,0.4
			s2,0.6,3,1.1s1.8,1.2,2.6,2s1.5,1.8,2,3l-4.4,2.1c-0.6-1.3-1.6-2.3-2.8-2.9c-1.2-0.6-2.5-0.9-3.8-0.9c-0.8,0-1.6,0.1-2.4,0.3
			s-1.5,0.5-2.1,0.9s-1.1,0.9-1.5,1.5s-0.6,1.3-0.6,2.1v11.3c0,0.8,0.2,1.5,0.6,2.1s0.9,1.1,1.5,1.5s1.3,0.7,2.1,0.9
			c0.8,0.2,1.6,0.3,2.4,0.3s1.7-0.1,2.5-0.3s1.5-0.5,2.1-0.9s1.1-0.9,1.5-1.5s0.6-1.3,0.6-2.1v-2.4h-8.4l4.8-4.7h8.4v7
			c0,1.6-0.3,3-1,4.3s-1.5,2.2-2.6,3s-2.3,1.4-3.7,1.8s-2.8,0.6-4.2,0.6s-2.8-0.2-4.2-0.6c-1.4-0.4-2.6-1-3.7-1.8s-1.9-1.8-2.6-3
			c-0.6-1.2-1-2.6-1-4.3L4.8,150L4.8,150z"/>
		<path class="st3" d="M37,154.1h9.7l-4.8,4.9H37v11.6h-4.9v-29.8h19.6l-4.8,4.9H37L37,154.1L37,154.1z"/>
		<path class="st3" d="M66,170.6h-1.6v-29.8h2.9l10.3,23.4l10.3-23.4h2.8v29.7h-1.6V142l-10.6,24h-1.8l-10.6-24L66,170.6L66,170.6z"
			/>
		<path class="st3" d="M110.1,154.8c0-0.9-0.2-1.6-0.6-2.2s-0.9-1.1-1.4-1.5c-0.6-0.4-1.3-0.7-2.1-0.9c-0.8-0.2-1.6-0.3-2.4-0.3
			c-2.1,0-3.9,0.7-5.4,2.1l-0.9-1c0.9-0.9,1.9-1.6,3-2s2.3-0.6,3.6-0.6c1,0,1.9,0.1,2.9,0.4c0.9,0.3,1.7,0.7,2.5,1.2
			c0.7,0.5,1.3,1.2,1.7,2c0.4,0.8,0.6,1.7,0.6,2.8v15c-1.3,0.5-2.7,0.8-4.2,1c-1.3,0.2-2.5,0.2-3.8,0.2h-0.5c-1,0-2-0.1-2.8-0.4
			c-0.9-0.3-1.6-0.7-2.3-1.3c-0.6-0.6-1.2-1.3-1.5-2.1s-0.6-1.8-0.6-2.8c0-1.2,0.2-2.2,0.7-3.1c0.4-0.8,1-1.5,1.8-2.1
			c0.7-0.5,1.6-0.9,2.6-1.2c1-0.2,2-0.4,3-0.4s2,0.1,3,0.3c1.1,0.2,2.1,0.5,3.1,1L110.1,154.8L110.1,154.8z M104,159
			c-0.8,0-1.6,0.1-2.4,0.2s-1.5,0.5-2.1,0.9s-1.1,1-1.5,1.7s-0.5,1.5-0.5,2.5c0,0.9,0.1,1.7,0.4,2.4s0.7,1.2,1.2,1.7s1.1,0.8,1.9,1
			s1.5,0.3,2.3,0.3h0.6c0.9,0,1.9-0.1,2.7-0.2c1-0.1,2.2-0.3,3.5-0.7v-8.6c-0.8-0.3-1.8-0.6-2.9-0.9C106.1,159.1,105,159,104,159
			L104,159z"/>
		<path class="st3" d="M125.1,149.9c-0.8,0-1.5,0.1-2.3,0.3s-1.4,0.5-2,0.9s-1.1,1-1.4,1.6c-0.4,0.6-0.6,1.4-0.6,2.2v9.4
			c0,0.9,0.2,1.7,0.6,2.3c0.4,0.6,0.8,1.2,1.4,1.6s1.3,0.7,2,0.9c0.8,0.2,1.5,0.3,2.3,0.3c1.3,0,2.5-0.3,3.6-0.8
			c1.1-0.5,1.9-1.3,2.4-2.4l1.4,0.7c-0.6,1.3-1.6,2.3-3,3s-2.8,1-4.4,1c-1,0-1.9-0.1-2.9-0.4c-0.9-0.3-1.8-0.7-2.5-1.2
			s-1.3-1.2-1.8-2.1c-0.5-0.8-0.7-1.8-0.7-2.9V155c0-1.1,0.2-2.1,0.7-2.9c0.4-0.8,1-1.5,1.8-2.1c0.7-0.5,1.6-1,2.5-1.2
			c0.9-0.3,1.9-0.4,2.9-0.4c1.4,0,2.7,0.3,3.9,0.8c1.2,0.5,2.2,1.3,2.9,2.4l-1.2,0.8c-0.6-0.8-1.4-1.5-2.4-1.9
			C127.3,150.1,126.3,149.9,125.1,149.9L125.1,149.9z"/>
		<path class="st3" d="M145.3,148.4c0.9,0,1.8,0.1,2.6,0.4c0.9,0.3,1.8,0.7,2.5,1.3s1.3,1.2,1.8,2.1c0.5,0.8,0.7,1.8,0.7,2.9v15.6
			h-1.5v-15.6c0-0.9-0.2-1.6-0.5-2.2c-0.4-0.6-0.8-1.2-1.4-1.6s-1.2-0.7-2-0.9c-0.7-0.2-1.5-0.3-2.3-0.3c-1,0-2.1,0.1-3.1,0.3
			c-1.1,0.2-2.2,0.5-3.2,1v19.4h-1.5v-30h1.5v9.1C141.1,148.9,143.2,148.4,145.3,148.4L145.3,148.4L145.3,148.4z"/>
		<path class="st3" d="M158.5,143.8c0-0.5,0.1-0.8,0.5-1.1s0.7-0.5,1.1-0.5s0.8,0.1,1.1,0.5c0.3,0.3,0.5,0.7,0.5,1.1
			s-0.1,0.8-0.5,1.1s-0.7,0.5-1.1,0.5s-0.8-0.1-1.1-0.5C158.7,144.6,158.5,144.2,158.5,143.8z M160.7,170.6h-1.5v-21.8h1.5V170.6z"
			/>
		<path class="st3" d="M182.7,155v15.5h-1.5V155c0-0.9-0.2-1.6-0.5-2.3c-0.4-0.6-0.8-1.2-1.4-1.6s-1.2-0.7-2-0.9
			c-0.7-0.2-1.5-0.3-2.2-0.3c-1.2,0-2.4,0.1-3.6,0.4s-2.1,0.5-2.9,0.9v19.4h-1.5V150c1.3-0.5,2.5-0.8,3.9-1.1c1.3-0.3,2.7-0.5,4-0.5
			c1,0,1.9,0.2,2.8,0.5s1.7,0.7,2.5,1.2c0.7,0.5,1.3,1.2,1.7,2.1S182.7,154,182.7,155L182.7,155z"/>
		<path class="st3" d="M189.9,164.4c0,0.9,0.2,1.7,0.5,2.3c0.4,0.6,0.8,1.1,1.4,1.6c0.6,0.4,1.3,0.7,2,0.9c0.8,0.2,1.5,0.3,2.4,0.3
			c1.2,0,2.3-0.2,3.3-0.6s1.8-1.1,2.4-2.1l1.4,0.7c-0.3,0.6-0.8,1.1-1.3,1.6s-1.1,0.8-1.7,1.1s-1.3,0.5-2,0.6s-1.4,0.2-2.1,0.2
			c-1,0-1.9-0.1-2.9-0.4s-1.8-0.7-2.5-1.2s-1.3-1.2-1.8-2.1c-0.5-0.8-0.7-1.8-0.7-2.9v-9.3c0-1.1,0.2-2.1,0.7-2.9s1-1.5,1.8-2.1
			s1.6-1,2.5-1.2s1.9-0.4,2.9-0.4s1.9,0.1,2.8,0.4s1.8,0.7,2.5,1.2s1.3,1.2,1.8,2.1c0.5,0.8,0.7,1.8,0.7,2.9v5.7h-14.1L189.9,164.4
			L189.9,164.4z M202.5,155c0-0.9-0.2-1.6-0.5-2.2c-0.4-0.6-0.8-1.2-1.4-1.6s-1.3-0.7-2-1c-0.8-0.2-1.5-0.3-2.3-0.3
			s-1.6,0.1-2.4,0.3c-0.8,0.2-1.4,0.5-2,1s-1.1,1-1.4,1.6c-0.4,0.6-0.5,1.4-0.5,2.2v4.4h12.6L202.5,155L202.5,155z"/>
		<path class="st3" d="M216.6,148.4c0.4,0,0.9,0,1.4,0.1v1.5c-0.4-0.1-0.8-0.1-1.1-0.1h-0.2c-0.4,0-0.9,0.1-1.3,0.2
			c-1.2,0.2-2.2,0.8-3.1,1.6s-1.3,2-1.3,3.4v15.6h-1.5v-15.6c0-0.9,0.1-1.7,0.4-2.5c0.3-0.7,0.7-1.4,1.2-1.9s1.1-1,1.8-1.4
			s1.4-0.6,2.2-0.8C215.7,148.4,216.1,148.4,216.6,148.4L216.6,148.4z"/>
		<path class="st3" d="M237.2,172.4c0,1.1-0.2,2.1-0.6,2.9s-1,1.5-1.7,2s-1.5,0.9-2.5,1.1c-0.9,0.2-1.9,0.4-2.8,0.4
			c-1.3,0-2.5-0.2-3.6-0.6c-1.2-0.4-2.1-1-3-1.7l0.9-0.9c0.7,0.6,1.6,1,2.6,1.3s2,0.5,3,0.5c0.8,0,1.6-0.1,2.4-0.3
			c0.8-0.2,1.4-0.5,2-0.9s1-0.9,1.4-1.5s0.5-1.4,0.5-2.2v-3c-1.1,0.6-2.2,1-3.2,1.2s-2,0.4-3,0.4s-1.9-0.1-2.9-0.4s-1.8-0.7-2.5-1.2
			s-1.3-1.2-1.8-2.1c-0.5-0.8-0.7-1.8-0.7-2.9V149h1.5v15.5c0,0.9,0.2,1.6,0.5,2.3c0.4,0.7,0.8,1.2,1.4,1.6s1.2,0.8,2,1
			c0.7,0.2,1.5,0.3,2.3,0.3c0.7,0,1.3,0,1.8-0.1s1-0.2,1.5-0.3s0.9-0.3,1.4-0.5s1.1-0.5,1.7-0.7V149h1.5L237.2,172.4L237.2,172.4z"
			/>
		<path class="st3" d="M265.2,170.6h-11.1v-29.8h11.2c1.1,0,2.1,0.2,3.1,0.5s1.8,0.8,2.6,1.4s1.3,1.4,1.7,2.3s0.6,2,0.6,3.1
			c0,0.8,0,1.4-0.1,2c-0.1,0.6-0.3,1.2-0.6,1.7c-0.3,0.5-0.7,1-1.3,1.5s-1.3,0.9-2.2,1.4c1.3,0.4,2.3,0.9,3.1,1.4
			c0.8,0.5,1.3,1.1,1.7,1.8s0.6,1.4,0.7,2.1c0.1,0.8,0.1,1.6,0.1,2.4c0,1.5-0.3,2.8-0.8,3.8s-1.2,1.9-2,2.5c-0.8,0.6-1.8,1.1-3,1.4
			C267.7,170.5,266.5,170.6,265.2,170.6L265.2,170.6z M265.2,154.1c0.9,0,1.8-0.1,2.6-0.3c0.8-0.2,1.5-0.6,2.1-1.1s1-1.1,1.4-1.9
			c0.3-0.7,0.5-1.6,0.5-2.6s-0.2-1.8-0.5-2.6c-0.3-0.7-0.8-1.3-1.4-1.8s-1.3-0.9-2.1-1.1c-0.8-0.2-1.6-0.4-2.5-0.4h-9.5v11.8
			L265.2,154.1L265.2,154.1z M265.6,169c1,0,1.9-0.1,2.7-0.2c1-0.2,1.8-0.6,2.5-1.1c0.7-0.5,1.2-1.2,1.6-2s0.6-1.9,0.6-3.1
			c0-2.5-0.7-4.3-2.1-5.3s-3.3-1.5-5.6-1.5h-9.7v13.4L265.6,169L265.6,169z"/>
		<path class="st3" d="M287.2,148.4c0.4,0,0.9,0,1.4,0.1v1.5c-0.4-0.1-0.8-0.1-1.1-0.1h-0.2c-0.4,0-0.9,0.1-1.3,0.2
			c-1.2,0.2-2.2,0.8-3.1,1.6c-0.9,0.8-1.3,2-1.3,3.4v15.6h-1.5v-15.6c0-0.9,0.1-1.7,0.4-2.5c0.3-0.7,0.7-1.4,1.2-1.9s1.1-1,1.8-1.4
			s1.4-0.6,2.2-0.8C286.3,148.4,286.7,148.4,287.2,148.4L287.2,148.4z"/>
		<path class="st3" d="M308,155v15.5h-1.5V155c0-0.9-0.2-1.6-0.5-2.3c-0.4-0.6-0.8-1.2-1.4-1.6s-1.2-0.7-2-0.9
			c-0.7-0.2-1.5-0.3-2.2-0.3c-1.2,0-2.4,0.1-3.6,0.4c-1.2,0.3-2.1,0.5-2.9,0.9v19.4h-1.5V150c1.3-0.5,2.5-0.8,3.9-1.1
			c1.3-0.3,2.7-0.5,4-0.5c1,0,1.9,0.2,2.8,0.5s1.7,0.7,2.5,1.2c0.7,0.5,1.3,1.2,1.7,2.1S307.9,154,308,155L308,155z"/>
		<path class="st3" d="M313.7,155.1c0-1.1,0.2-2.1,0.7-2.9s1-1.5,1.8-2.1c0.8-0.6,1.6-1,2.5-1.3s1.9-0.4,2.9-0.4s1.9,0.1,2.9,0.4
			s1.8,0.7,2.5,1.3c0.7,0.6,1.3,1.2,1.8,2.1c0.5,0.8,0.7,1.8,0.7,2.9v9.2c0,1.1-0.2,2.1-0.7,2.9s-1,1.5-1.8,2.1
			c-0.7,0.6-1.6,1-2.5,1.3c-0.9,0.3-1.9,0.4-2.9,0.4s-1.9-0.1-2.9-0.4s-1.8-0.7-2.5-1.3c-0.7-0.6-1.3-1.2-1.8-2.1
			c-0.5-0.8-0.7-1.8-0.7-2.9V155.1z M321.5,150c-0.8,0-1.5,0.1-2.3,0.3c-0.8,0.2-1.4,0.5-2,0.9s-1.1,1-1.5,1.6s-0.6,1.4-0.6,2.3v9.2
			c0,0.9,0.2,1.7,0.6,2.3s0.9,1.2,1.5,1.6s1.3,0.7,2,0.9c0.8,0.2,1.5,0.3,2.3,0.3c0.8,0,1.5-0.1,2.3-0.3c0.8-0.2,1.4-0.5,2-0.9
			c0.6-0.4,1.1-1,1.5-1.6c0.4-0.6,0.6-1.4,0.6-2.3v-9.2c0-0.9-0.2-1.7-0.6-2.3c-0.4-0.6-0.9-1.2-1.5-1.6c-0.6-0.4-1.3-0.7-2-0.9
			C323,150.1,322.3,150,321.5,150z"/>
	</g>
	<g>
		<path class="st1" d="M147.1,100.6l-8.9,7.7h71.1l8.9-7.7H147.1z M167.3,82.9l-8.5,7.3h77.7l8.4-7.3H167.3L167.3,82.9z
			 M255.3,132.8l-0.1,0.6l0.9-0.6H255.3z"/>
		<path class="st1" d="M26,108.1c-4.5,4.4-7.2,8.5-9,10.3h61.7c17.5,0,29.7-4.6,38.3-10.1H50.5l0.3-0.2l11.9-7.5H140l-8.9,7.7
			c-17.2,13.7-33,17.4-52.4,17.4H2.8c6.1-10.1,12.2-17.9,18.6-23.9c16-15.1,33.1-18.9,52.5-18.9h86.3l-8.5,7.3H73.9
			c-17.5,0-29.7,4.6-38.3,10.1C31.7,102.9,28.5,105.5,26,108.1L26,108.1z"/>
		<polygon class="st1" points="252.2,82.9 203.1,125.7 203,125.7 		"/>
		<polygon class="st1" points="335.7,82.9 335.7,82.9 326.2,82.9 		"/>
		<path class="st1" d="M335.7,82.9l-6.2,15c-1.5,3.6-3.1,7.5-4.6,11.1l-1,2.3c-0.1,0.2-0.2,0.5-0.3,0.8l-0.9,2.2
			c-0.1,0.2-0.2,0.5-0.3,0.7l-0.9,2.1c-0.1,0.2-0.2,0.5-0.3,0.7l-0.5,1.3c-1.1,2.6-2,4.8-2.7,6.5h-9.7L322.8,91l-49.7,29.2h-11.8
			l-3.5-30l-19.7,17l-21.5,18.5h-13.4l49.1-42.8h13.6V83l4.1,30l49.6-30L335.7,82.9L335.7,82.9z"/>
		<path class="st1" d="M335.7,82.9c-1.4,3.5-3.7,9-6.2,15L335.7,82.9L335.7,82.9z"/>
	</g>
</g>
</svg>
