<svg xmlns="http://www.w3.org/2000/svg" viewBox="0 0 147 89"><path fill="#242424" d="M0 59.977h3.934l.872 8.135c.122 1.302.223 2.909.223 2.909h.04s.63-1.587 1.218-2.787l3.812-8.257h3.935L6.185 75.72H2.231L0 59.977zm17.36 9.864-3.184-9.864h4.015l1.136 4.007c.304 1.078.547 2.44.547 2.44h.04s.771-1.301 1.501-2.4l2.718-4.047h4.157l-7.098 9.986-1.095 5.736h-3.833l1.096-5.858zm3.771-13.504h3.975l-2.656 2.867h-2.677l1.358-2.867zm4.787 14.419h3.832c-.04 1.627 1.217 2.258 2.94 2.258 1.299 0 2.516-.427 2.516-1.688 0-.915-.954-1.342-3.103-2.115-2.82-.997-4.583-1.993-4.583-4.556 0-3.254 2.514-4.983 6.023-4.983 3.042 0 6.185 1.18 6.043 4.84h-3.731c.02-1.24-.872-1.911-2.434-1.911-.994 0-2.17.386-2.19 1.505 0 .956.852 1.159 3.366 2.034 2.657.915 4.543 2.054 4.543 4.637 0 3.559-2.981 5.308-6.53 5.308-3.448 0-6.814-1.363-6.692-5.329zm4.664-14.297h2.88l.79 1.22h.041l1.156-1.22h3.123l-2.738 2.745h-3.407l-1.845-2.745zm15.716 12.345-1.703 1.566-1.034 5.349h-3.833l3.022-15.742h3.832l-1.115 5.817 6.145-5.817h4.542l-6.895 6.325 4.36 9.417h-4.197l-3.123-6.915zm13.223 1.037-3.184-9.864h4.015l1.136 4.007c.304 1.078.548 2.44.548 2.44h.04s.77-1.301 1.5-2.4l2.718-4.047h4.158l-7.118 9.986-1.096 5.736h-3.832l1.115-5.858zm15.352-9.864h3.833l-2.414 12.447h6.754l-.609 3.275H71.831l3.042-15.722zm16.467 0h3.914l2.738 15.742h-3.975l-.386-2.868h-5.313L86.94 75.72h-3.894l8.295-15.742zm-1.663 10.108h3.61l-.507-3.783c-.102-.834-.223-2.257-.223-2.257h-.041s-.608 1.444-.994 2.237l-1.845 3.803zm12.33-10.108h3.853l2.738 7.729c.446 1.22.71 2.216.71 2.216h.04l1.927-9.945h3.711l-3.042 15.742h-3.833l-2.677-7.505a40.089 40.089 0 0 1-.77-2.501h-.041l-1.927 10.006h-3.71l3.021-15.742zm15.088 0h11.397l-.608 3.173h-7.544l-.548 2.888h6.49l-.568 2.99h-6.51l-.649 3.416h7.808l-.629 3.275h-11.64l3.001-15.742zm13.344 0h5.09l.507 6.407c.122 1.79.264 4.108.264 4.108h.02s.791-2.054 1.623-3.844l3.082-6.67h5.273l-3.022 15.74h-3.508l1.5-7.768c.244-1.24.73-3.315.73-3.315h-.04s-.852 1.972-1.399 3.172l-3.63 7.932h-3.164l-.609-7.952a211.63 211.63 0 0 1-.162-3.152h-.04s-.386 2.257-.588 3.294l-1.501 7.79h-3.427l3.001-15.742zM52.22 14.623l.203.122L46.32 25.18l-2.13 5.349c.061.488.812 6.996 1.886 11.836.467 2.136.994 3.946 1.542 4.76l-.203.142c-.568-.814-1.095-2.664-1.582-4.84-1.095-5.044-1.886-11.898-1.886-11.898v-.061l2.13-5.39v-.02l6.144-10.434z"/><path fill="#242424" d="M41.37 24.304c.041.02.082.04.143.061.75.346 1.074 1.22.73 1.973a1.474 1.474 0 0 1-1.968.732l-.121-.061 1.216-2.705zm-.182 0-1.197 2.603c-.06-.02-.1-.04-.162-.06-.872-.407-1.298-1.323-.973-2.035.264-.569.912-.854 1.582-.752.223 0 .446-.122.669-.305.06-.02.142-.02.182.02.061.061.061.122.041.183-.081.224-.142.346-.142.346zm9.755 5.308c.344.163.466.57.304.916-.163.345-.568.467-.913.305 0 0-.02 0-.02-.02 0 0-.933-.489-1.663-.774-.223-.08-.426-.183-.548-.183-.304 0-.912.163-1.48.224-.548.061-1.055.04-1.379-.102a.687.687 0 0 1-.345-.895c.162-.345.548-.488.892-.345.082.04.183.02.284.02.203 0 .426-.04.65-.081.547-.082 1.094-.204 1.399-.204.203 0 .588.102 1.014.265.79.366 1.805.874 1.805.874z"/><path fill="#242424" d="M48.327 27.558a7.877 7.877 0 0 1-.467.509c-.547.549-1.318 1.078-2.474.793a.66.66 0 0 1-.487-.813.657.657 0 0 1 .812-.489c.689.163 1.074-.305 1.358-.61.244-.264.446-.488.588-.57.163-.1.568-.182 1.055-.203.831-.02 2.028.061 2.028.061.365.02.649.346.628.733a.684.684 0 0 1-.73.63s-1.095-.081-1.886-.061c-.142 0-.344.02-.425.02z"/><path fill="#242424" d="m42.1 27.985 1.238-1.973 3.245 2.055-1.237 1.972c.02 0-3.245-2.054-3.245-2.054z"/><path fill="#242424" d="M45.893 24.711a.5.5 0 0 1 .67.102.467.467 0 0 1-.102.67c-.122.082-.609.286-1.176.489-.67.224-1.48.468-1.643.55-.223.243-.71 1.036-.892 1.321 0 .061 0 .305.02.468.06.427.223.935.405 1.22l1.055.488a.487.487 0 0 1 .264.63.485.485 0 0 1-.629.265s-.75-.305-1.115-.508c-.163-.102-.284-.204-.325-.265-.304-.406-.588-1.322-.649-1.952-.04-.366.02-.671.102-.814.121-.223.507-.834.79-1.22.163-.244.325-.407.406-.447.122-.082 1.075-.387 1.866-.672.446-.101.933-.305.953-.325z"/><path fill="#fff" d="M69.418 16.86v34.657h-18.05V9.884l18.05 6.976zM96.613 0v51.517h-21.66V9.497L96.614 0zm-6.064 18.508h-3.772v3.783h3.772v-3.783zm0 8.054h-3.772v3.782h3.772v-3.782z"/><path fill="#242424" d="M81.16 22.29v29.227H63.11V27.15l18.05-4.86zm-7.078 16.597H70.31v3.782h3.772v-3.782z"/><path fill="#fff" d="M59.947 86.64h1.967c.04.55.345.977 1.156.977.547 0 .912-.183.912-.63 0-.468-.588-.59-1.48-.834-1.115-.326-1.967-.773-1.967-1.953 0-1.444 1.217-2.217 2.86-2.217 1.46 0 2.717.63 2.818 2.115h-1.906c-.06-.468-.406-.772-.994-.772-.426 0-.872.162-.872.549 0 .386.507.508 1.44.772 1.034.305 2.048.753 2.048 1.994 0 1.545-1.115 2.359-2.9 2.359-1.541-.02-3.001-.712-3.082-2.36zm6.713-.04h2.169l-.426 2.175h-2.17l.426-2.175zm3.934-4.454h1.987l-.223 1.078h.04c.487-.773 1.075-1.2 1.907-1.2.223 0 .385.02.466.06l-.365 1.872h-.04c-1.339-.204-2.13.325-2.434 1.912l-.547 2.888h-2.069l1.278-6.61zm3.123 4.454h2.17l-.427 2.175h-2.17l.427-2.175zm2.656-.651c0-2.176 1.48-3.966 3.772-3.966 1.684 0 3.164.976 3.184 3.01 0 2.197-1.48 4.007-3.772 4.007-1.683-.02-3.184-1.017-3.184-3.051zm4.867-1.017c0-.773-.304-1.485-1.155-1.485-1.197 0-1.643 1.526-1.643 2.583 0 .793.304 1.485 1.156 1.485 1.196 0 1.663-1.505 1.642-2.583zm2.454 1.668h2.17l-.426 2.175h-2.17l.426-2.175z"/></svg>