<?xml version="1.0" standalone="no"?>
<!DOCTYPE svg PUBLIC "-//W3C//DTD SVG 20010904//EN"
 "http://www.w3.org/TR/2001/REC-SVG-20010904/DTD/svg10.dtd">
<svg version="1.0" xmlns="http://www.w3.org/2000/svg"
 width="1024.000000pt" height="1024.000000pt" viewBox="0 0 1024.000000 1024.000000"
 preserveAspectRatio="xMidYMid meet">

<g transform="translate(0.000000,1024.000000) scale(0.100000,-0.100000)"
fill="#000000" stroke="none">
<path d="M4443 8774 c-3 -9 2 -42 11 -75 9 -32 16 -61 16 -63 0 -2 -23 5 -51
15 -76 29 -248 69 -296 69 -42 0 -42 0 -37 -32 14 -78 39 -149 81 -228 89
-169 188 -269 340 -346 54 -27 99 -49 101 -50 1 -1 -11 -35 -28 -77 -33 -82
-50 -157 -50 -217 0 -23 -14 -66 -37 -111 -49 -99 -130 -178 -320 -313 -83
-59 -200 -147 -260 -194 -127 -102 -336 -306 -383 -376 -35 -52 -70 -149 -70
-195 0 -58 31 -120 94 -188 l63 -67 -28 -41 c-48 -72 -102 -177 -164 -320 -58
-134 -62 -141 -109 -170 -43 -26 -61 -30 -133 -34 -75 -3 -89 0 -145 26 -116
55 -205 163 -249 303 -30 92 -37 301 -15 432 41 248 166 520 341 737 60 76
181 194 272 266 35 28 63 53 63 56 0 9 -124 -25 -207 -56 -384 -145 -756 -596
-873 -1059 -43 -170 -53 -269 -47 -446 7 -205 41 -341 126 -514 132 -267 326
-453 591 -567 154 -66 234 -83 401 -84 l146 0 -29 -43 c-99 -143 -301 -307
-508 -412 -77 -39 -138 -94 -161 -145 -9 -22 -29 -101 -44 -175 -30 -150 -54
-209 -122 -302 -73 -99 -148 -173 -283 -281 -69 -54 -126 -102 -128 -107 -4
-10 100 -37 175 -44 86 -9 220 10 314 44 99 36 240 58 733 115 491 58 696 72
1231 86 430 12 873 5 1375 -22 325 -17 796 -68 1138 -124 84 -14 156 -25 160
-25 13 1 -64 39 -142 70 -247 98 -715 205 -1111 254 -749 94 -1677 82 -2340
-30 -202 -34 -627 -125 -757 -163 -38 -11 -68 -18 -68 -16 0 2 29 48 63 102
35 54 100 162 145 239 68 118 91 148 135 181 72 55 265 170 530 317 323 180
465 267 594 367 42 33 99 63 180 95 138 54 261 116 356 178 37 24 67 42 67 40
0 -9 -114 -324 -150 -413 -45 -112 -155 -320 -234 -442 -57 -88 -69 -131 -40
-147 9 -5 189 -7 414 -4 256 3 467 0 592 -7 215 -14 499 -57 627 -96 47 -14
91 -25 98 -25 65 0 -52 195 -172 287 -138 106 -274 139 -530 130 -145 -6 -391
-27 -488 -43 -37 -6 -37 -5 -27 20 32 86 174 306 325 506 232 308 293 436 283
595 -9 127 -49 181 -227 301 l-128 86 -6 66 c-3 37 -4 68 -3 69 1 2 16 -17 34
-42 61 -86 136 -80 297 27 124 82 147 147 80 218 l-23 25 299 245 c165 135
310 253 322 263 23 18 25 18 73 -12 123 -76 275 -79 456 -10 88 34 288 163
373 240 167 154 266 369 269 584 1 94 -1 104 -32 167 -37 75 -87 123 -167 160
-44 20 -66 22 -190 23 -122 0 -149 -3 -210 -24 -164 -56 -333 -165 -465 -300
-162 -166 -223 -302 -224 -496 -1 -102 1 -114 28 -170 17 -33 30 -63 30 -67 1
-6 -330 -286 -555 -468 l-95 -78 -54 14 c-30 8 -92 14 -138 14 -82 0 -85 1
-118 34 l-34 34 40 68 c22 38 53 105 68 149 24 73 27 93 27 230 0 186 -16 246
-118 460 -64 134 -72 158 -75 221 -4 63 -2 73 20 99 33 38 102 47 222 27 50
-8 123 -15 161 -16 118 -1 202 59 281 200 40 71 43 103 12 131 -13 11 -95 68
-183 128 -185 124 -197 134 -230 191 -58 99 -144 140 -385 184 l-115 22 -33
53 c-73 120 -260 240 -467 300 -102 29 -153 32 -162 9z m-99 -219 c169 -60
212 -79 336 -147 188 -103 213 -110 385 -114 174 -4 271 -17 334 -45 31 -13
81 -55 156 -132 88 -89 132 -125 217 -177 60 -36 108 -68 108 -72 0 -4 -16
-10 -35 -14 -48 -9 -51 -19 -21 -63 33 -47 33 -71 1 -101 -19 -18 -40 -25 -85
-28 -40 -3 -60 -1 -60 7 0 6 10 11 23 12 12 0 -34 16 -103 35 -146 39 -200 42
-342 14 -127 -25 -191 -25 -244 -1 -50 23 -106 79 -133 134 l-21 42 6 -65 c12
-139 65 -288 160 -452 61 -107 85 -177 91 -273 6 -95 -5 -145 -50 -212 -63
-95 -247 -208 -418 -257 -85 -24 -284 -54 -295 -44 -2 3 4 21 16 41 11 19 38
83 59 142 22 59 50 118 62 131 12 13 20 24 17 24 -3 0 -57 -18 -120 -39 -228
-79 -379 -156 -470 -240 -47 -44 -51 -50 -33 -56 222 -72 297 -119 516 -317
164 -148 220 -190 299 -227 92 -43 156 -53 285 -45 162 10 202 8 238 -15 72
-44 109 -103 122 -195 6 -35 5 -47 -4 -42 -6 4 -11 15 -11 23 0 43 -64 103
-111 103 -18 0 -18 -2 -6 -27 21 -41 50 -134 44 -140 -3 -2 -13 9 -22 27 -26
51 -51 70 -92 70 -34 0 -35 -1 -21 -17 28 -33 52 -88 58 -138 6 -39 5 -45 -4
-30 -6 10 -29 39 -51 63 -35 38 -48 45 -90 49 -42 5 -58 13 -101 54 -63 59
-181 136 -245 160 -27 10 -162 73 -301 140 -139 67 -302 144 -363 171 -188 85
-388 231 -397 289 -12 78 55 180 230 350 220 215 418 359 569 417 58 22 84 26
178 26 109 0 166 -14 330 -78 11 -5 -2 11 -30 35 -107 91 -206 199 -227 246
-62 141 -13 321 122 447 33 30 90 70 128 88 l68 35 -86 16 c-101 19 -214 59
-250 88 -14 12 -19 18 -12 14 18 -9 133 5 127 15 -3 5 -18 11 -35 15 -71 15
-572 325 -527 325 3 0 62 -20 131 -45z m2988 -844 c4 -4 0 -11 -10 -17 -14 -9
-21 -7 -35 13 l-19 24 29 -7 c15 -4 31 -9 35 -13z m-65 -17 c16 -25 16 -27 -8
-45 -53 -43 -57 -43 -85 3 -25 39 -26 42 -8 55 31 23 81 16 101 -13z m-157 8
c0 -5 -19 -24 -42 -42 l-41 -33 -19 23 c-22 27 -16 35 32 48 45 13 70 14 70 4z
m308 -37 l37 -34 -30 -25 c-16 -14 -32 -25 -35 -25 -3 0 -20 19 -37 42 l-33
42 21 18 c29 23 34 22 77 -18z m-238 -57 c8 -13 1 -23 -32 -47 -46 -34 -56
-31 -90 27 l-17 29 42 30 42 31 23 -27 c13 -14 27 -34 32 -43z m-180 2 c0 -6
-19 -22 -41 -37 l-41 -27 -24 29 c-13 17 -24 35 -24 41 0 5 19 20 43 31 l42
22 23 -25 c12 -14 22 -29 22 -34z m337 -5 l31 -43 -41 -29 -42 -30 -32 43 -31
42 36 30 c21 17 39 31 42 31 3 0 19 -20 37 -44z m152 -35 c11 -36 10 -43 -7
-64 l-18 -24 -33 40 -34 40 29 24 c40 32 49 30 63 -16z m-615 -4 l26 -35 -37
-30 c-21 -17 -40 -31 -44 -31 -4 0 -19 17 -35 37 l-28 36 34 29 c19 15 40 28
46 28 6 0 23 -15 38 -34z m182 -16 c15 -22 25 -41 23 -43 -2 -1 -20 -17 -40
-35 l-36 -33 -34 42 -33 42 40 33 c21 19 42 34 46 34 4 0 20 -18 34 -40z m177
-21 c32 -44 30 -52 -24 -90 l-27 -19 -32 42 -31 43 38 32 c21 18 40 33 43 33
3 0 18 -18 33 -41z m207 -60 c0 -3 -18 -20 -40 -38 l-39 -32 -30 41 -30 41 37
34 37 34 32 -37 c18 -20 32 -40 33 -43z m-684 -54 l-39 -32 -28 32 c-16 18
-29 37 -29 43 0 5 16 24 36 42 l36 31 31 -42 31 -42 -38 -32z m223 15 c1 -3
-17 -20 -38 -37 l-39 -33 -37 41 -36 40 43 35 43 34 32 -38 c18 -20 32 -39 32
-42z m155 18 l29 -42 -39 -32 c-42 -36 -48 -35 -86 19 l-21 29 39 34 c21 18
41 33 44 33 3 0 18 -18 34 -41z m362 5 c-10 -10 -19 5 -10 18 6 11 8 11 12 0
2 -7 1 -15 -2 -18z m-183 -29 l29 -35 -39 -34 -38 -34 -32 36 c-18 20 -33 39
-33 42 1 7 71 61 79 61 3 0 19 -16 34 -36z m-645 -21 l30 -37 -36 -28 c-19
-15 -38 -28 -42 -28 -4 0 -19 15 -33 33 l-26 34 32 31 c17 18 35 32 38 32 4 0
20 -17 37 -37z m812 22 c10 -13 11 -27 1 -70 -7 -30 -16 -57 -21 -60 -8 -5
-80 72 -80 85 0 8 71 60 81 60 4 0 12 -7 19 -15z m-600 -85 c-1 -6 -81 -62
-84 -58 -2 2 -15 20 -31 41 l-29 39 39 33 39 32 33 -41 c18 -22 33 -43 33 -46z
m149 26 l31 -44 -41 -33 -41 -32 -34 39 c-18 21 -33 41 -33 44 0 5 78 70 85
70 1 0 17 -20 33 -44z m184 -21 l27 -34 -37 -35 c-21 -20 -40 -35 -43 -36 -3
0 -17 18 -32 39 l-28 39 38 31 c20 17 39 30 42 31 3 0 17 -16 33 -35z m207
-68 c0 -2 -17 -18 -39 -35 l-38 -31 -33 46 -33 45 39 33 38 32 33 -43 c18 -23
33 -45 33 -47z m-843 43 l23 -28 -36 -32 c-40 -34 -57 -35 -62 -2 -3 22 33 93
46 91 4 0 17 -13 29 -29z m165 -87 c-20 -18 -40 -32 -43 -33 -4 0 -19 18 -35
41 l-28 41 39 32 39 33 32 -41 32 -41 -36 -32z m186 53 l32 -44 -40 -32 c-23
-18 -42 -31 -44 -29 -1 2 -16 21 -31 43 l-29 39 39 33 c22 19 40 34 41 34 0 0
15 -20 32 -44z m185 -24 l28 -37 -28 -23 c-55 -45 -58 -45 -88 -1 -27 39 -28
40 -9 54 10 7 28 20 39 29 27 20 26 21 58 -22z m197 -46 c13 -17 11 -21 -25
-51 l-39 -33 -37 46 -38 45 41 33 41 32 21 -27 c12 -14 28 -34 36 -45z m-640
-35 c0 -5 -16 -21 -37 -37 l-36 -28 -33 40 c-19 21 -34 41 -33 44 0 3 19 19
42 36 l42 31 27 -39 c16 -21 28 -42 28 -47z m764 32 c-9 -21 -18 -44 -21 -50
-7 -18 -17 -16 -39 8 -18 20 -18 21 16 50 50 41 64 38 44 -8z m-611 -7 c15
-19 27 -39 27 -43 -1 -4 -20 -22 -43 -40 -37 -29 -43 -30 -51 -15 -5 9 -18 28
-30 40 l-21 24 40 34 c22 18 42 34 45 34 3 0 17 -16 33 -34z m-333 11 c0 -8
-9 -22 -20 -32 -23 -20 -24 -17 -10 19 10 27 30 35 30 13z m515 -37 c15 -22
26 -42 24 -43 -2 -2 -21 -16 -41 -31 l-37 -27 -27 41 -28 42 34 29 c19 16 38
29 41 29 4 0 19 -18 34 -40z m212 -62 c-1 -4 -20 -20 -42 -37 l-40 -29 -32 45
-32 46 41 33 42 32 33 -41 c18 -23 32 -45 30 -49z m-677 27 l31 -45 -33 -29
-33 -30 -32 37 c-18 20 -33 42 -33 47 0 8 57 63 67 65 1 0 16 -20 33 -45z
m840 -24 c0 -9 -14 -32 -30 -51 -28 -34 -29 -35 -44 -15 -8 11 -21 29 -29 40
-14 18 -12 22 21 51 l37 32 23 -21 c12 -11 22 -28 22 -36z m-659 -4 l25 -42
-27 -22 c-43 -36 -52 -36 -83 3 l-29 37 39 33 c21 18 41 33 44 33 3 0 17 -19
31 -42z m191 -25 l18 -30 -43 -35 -42 -35 -29 40 -28 39 28 22 c66 52 65 53
96 -1z m198 -54 c0 -3 -17 -20 -39 -37 l-38 -30 -31 43 -32 44 38 31 37 31 32
-38 c18 -20 33 -40 33 -44z m157 -59 c-23 -20 -45 -35 -48 -33 -3 2 -19 22
-34 44 l-29 42 40 34 39 34 37 -42 37 -42 -42 -37z m-807 80 l22 -30 -23 -25
c-12 -13 -26 -24 -31 -24 -10 0 -11 94 -1 103 9 10 10 10 33 -24z m158 -23
l32 -45 -27 -19 c-16 -10 -33 -22 -39 -25 -7 -4 -23 11 -39 34 l-27 41 34 29
c18 15 33 28 34 29 0 0 15 -20 32 -44z m179 -22 l27 -36 -34 -29 c-19 -16 -38
-29 -41 -29 -3 0 -18 17 -33 38 l-26 37 32 27 c18 15 36 28 40 28 4 0 19 -16
35 -36z m213 -54 c0 -9 -81 -72 -86 -67 -3 2 -17 21 -33 42 l-28 37 41 38 40
38 33 -42 c18 -22 33 -43 33 -46z m-477 -2 l27 -37 -44 -35 c-23 -20 -48 -36
-54 -36 -6 0 -18 21 -28 46 l-18 46 40 33 c21 19 41 30 45 27 3 -4 17 -24 32
-44z m636 11 c18 -22 32 -41 30 -43 -2 -1 -21 -16 -43 -32 l-39 -28 -33 38
c-19 22 -34 42 -34 46 0 7 71 60 80 60 3 0 20 -19 39 -41z m-449 -62 c0 -9
-62 -66 -72 -67 -4 0 -19 17 -33 38 l-26 37 38 32 38 33 27 -33 c15 -17 28
-35 28 -40z m163 -55 c-55 -45 -59 -45 -92 0 l-31 43 37 32 38 33 38 -43 37
-42 -27 -23z m177 42 c37 -52 36 -54 -31 -89 -25 -14 -28 -12 -58 25 l-31 39
43 35 c23 20 42 36 43 36 0 0 16 -21 34 -46z m-4359 -35 c-155 -289 -170 -711
-33 -974 53 -102 163 -211 268 -263 88 -44 226 -87 315 -97 l56 -6 2 -73 c1
-40 6 -97 10 -127 5 -30 7 -56 5 -58 -9 -10 -187 0 -252 14 -309 65 -518 264
-598 570 -26 100 -26 385 0 505 27 125 63 234 111 335 40 84 135 238 142 231
2 -1 -10 -27 -26 -57z m3902 -7 l17 -30 -42 -31 -42 -31 -28 27 c-15 15 -28
32 -27 37 1 17 83 74 94 65 6 -4 18 -21 28 -37z m167 -10 c14 -20 26 -40 28
-43 1 -3 -15 -19 -36 -37 l-39 -31 -31 43 -31 43 37 31 c20 17 39 31 42 31 3
1 16 -16 30 -37z m185 -28 c15 -19 25 -36 24 -37 -20 -12 -83 -37 -93 -37 -8
0 -21 12 -31 26 -16 25 -16 27 2 39 10 7 27 20 38 29 28 21 29 21 60 -20z
m-1640 -140 c-28 -121 -85 -222 -181 -324 -77 -81 -183 -172 -224 -195 -8 -4
6 14 31 41 169 180 312 405 365 579 l19 60 3 -46 c2 -26 -4 -78 -13 -115z
m1349 92 c14 -19 26 -39 26 -44 0 -12 -55 -1 -89 17 l-23 13 23 24 c12 13 26
24 30 24 3 0 18 -15 33 -34z m176 -15 c12 -24 6 -28 -51 -37 l-44 -7 29 32
c34 36 51 39 66 12z m-2982 -586 c12 -9 77 -39 144 -66 68 -28 161 -69 208
-92 l85 -42 -125 -6 c-126 -5 -231 -30 -276 -64 -17 -13 -14 -14 37 -15 103 0
307 -66 428 -137 101 -60 205 -163 243 -241 31 -63 33 -74 33 -172 0 -103 -1
-107 -43 -194 -36 -74 -57 -104 -130 -176 -124 -123 -350 -273 -714 -476 -229
-127 -387 -224 -483 -296 -62 -48 -81 -71 -180 -224 -115 -180 -164 -248 -171
-241 -3 3 11 53 30 113 19 60 37 129 41 154 25 175 22 167 85 215 32 25 170
114 307 198 137 85 285 178 328 207 316 211 497 427 499 593 1 45 -5 71 -19
96 -22 38 -55 59 -36 23 16 -31 13 -92 -8 -137 -53 -115 -186 -166 -301 -114
-94 42 -195 192 -224 331 l-13 63 -13 -45 c-7 -25 -15 -88 -19 -140 -7 -89 -8
-93 -20 -65 -47 110 -57 315 -22 450 29 114 126 301 216 418 42 53 79 97 83
97 4 0 18 -7 30 -15z m1856 -107 c22 -30 3 -48 -24 -23 -11 10 -20 24 -20 32
0 21 27 15 44 -9z m-107 -71 c4 -29 2 -37 -10 -37 -17 0 -51 86 -41 102 11 17
44 -26 51 -65z m-611 -355 c30 -19 47 -112 24 -127 -15 -10 -48 31 -56 69 -9
53 4 77 32 58z"/>
<path d="M5144 8152 c3 -6 22 -16 41 -22 22 -7 45 -26 62 -53 40 -59 84 -74
171 -58 63 11 72 11 142 -13 41 -14 76 -23 78 -21 8 8 -177 110 -250 136 -87
32 -258 54 -244 31z"/>
<path d="M7798 6908 c-33 -34 -101 -117 -150 -183 -50 -66 -99 -130 -110 -142
l-20 -21 43 -91 c41 -90 43 -91 73 -86 17 3 92 10 166 15 161 12 308 38 333
58 15 14 16 17 3 30 -10 11 -12 21 -6 38 8 19 4 27 -20 44 -33 23 -39 40 -15
40 8 0 15 6 15 14 0 20 -39 46 -69 46 -23 0 -23 2 -17 50 8 60 -3 84 -45 99
-29 10 -30 13 -24 50 6 37 4 41 -24 56 -17 8 -30 21 -28 27 1 7 -9 14 -22 16
-18 3 -37 -10 -83 -60z m32 -126 c0 -4 -35 -41 -77 -82 -171 -165 -183 -175
-192 -162 -5 9 20 39 78 95 147 142 191 176 191 149z m50 -137 c-8 -7 -76 -50
-150 -94 -117 -70 -136 -78 -144 -64 -5 10 -6 18 0 20 5 2 70 37 144 78 131
72 182 93 150 60z m54 -125 c-15 -15 -305 -101 -316 -94 -23 15 8 30 128 65
127 37 209 50 188 29z"/>
<path d="M7440 6511 c-72 -15 -100 -43 -100 -101 0 -47 56 -100 104 -100 32 0
147 47 146 60 -2 17 -90 145 -101 146 -8 1 -30 -1 -49 -5z"/>
<path d="M3450 2908 c0 -156 -5 -289 -10 -310 -25 -88 -138 -107 -216 -36 -21
19 -21 18 -60 -20 -21 -21 -47 -43 -58 -49 -15 -8 -16 -13 -6 -30 33 -52 150
-102 241 -103 110 0 205 56 251 148 22 46 23 55 26 360 l3 312 -85 0 -86 0 0
-272z"/>
<path d="M4006 3012 c-150 -362 -256 -625 -256 -634 0 -5 39 -7 86 -6 l87 3
32 85 32 85 168 0 168 0 36 -85 37 -85 88 -3 c69 -2 87 0 83 10 -19 49 -216
528 -262 638 -31 74 -59 141 -62 148 -4 8 -31 12 -87 12 l-81 0 -69 -168z
m214 -179 c29 -79 51 -144 49 -145 -2 -2 -54 -1 -115 2 l-111 5 55 148 c31 81
58 144 62 140 4 -5 31 -72 60 -150z"/>
<path d="M4720 2778 l0 -403 82 2 83 1 3 139 3 139 37 37 38 37 132 -177 133
-177 99 -1 c55 0 100 1 100 3 0 2 -246 327 -333 439 -8 12 111 154 272 326
l35 37 -106 0 -106 0 -151 -165 -151 -165 0 165 0 165 -85 0 -85 0 0 -402z"/>
<path d="M5520 2902 c0 -298 6 -343 53 -412 30 -46 99 -97 150 -112 23 -7 89
-13 147 -13 95 0 111 3 168 29 72 34 122 85 148 155 15 39 18 92 22 339 l4
292 -86 0 -85 0 -3 -282 c-3 -278 -3 -284 -26 -316 -49 -68 -154 -91 -231 -50
-87 45 -86 41 -89 364 l-3 284 -84 0 -85 0 0 -278z"/>
<path d="M6400 2775 l0 -407 228 5 c257 5 284 10 348 72 94 90 79 250 -30 322
l-44 30 29 17 c56 33 90 139 69 217 -14 53 -69 109 -126 128 -25 8 -115 15
-256 18 l-218 5 0 -407z m379 254 c61 -21 78 -111 30 -155 -18 -16 -40 -20
-135 -22 l-114 -4 0 96 0 96 94 0 c51 0 107 -5 125 -11z m58 -341 c45 -50 41
-118 -10 -149 -27 -16 -51 -19 -149 -19 l-118 0 0 95 0 95 128 0 c120 0 130
-1 149 -22z"/>
<path d="M4472 2179 c-126 -21 -239 -108 -295 -227 -30 -64 -32 -73 -32 -188
0 -119 0 -121 37 -196 45 -89 94 -138 187 -182 63 -29 72 -31 186 -31 116 0
123 1 186 32 124 61 203 176 218 314 14 134 -18 252 -95 346 -82 100 -249 156
-392 132z m184 -173 c90 -42 133 -121 133 -246 1 -113 -39 -189 -121 -231
-137 -70 -301 0 -343 145 -68 234 126 427 331 332z"/>
<path d="M2690 1765 l0 -405 85 0 85 0 0 138 0 138 39 38 39 38 132 -176 132
-176 99 0 c55 0 99 3 99 6 0 3 -73 101 -162 217 -89 117 -165 217 -170 223 -5
7 42 67 128 163 75 83 145 162 156 176 l19 25 -104 0 -104 0 -149 -167 -149
-167 -3 167 -2 167 -85 0 -85 0 0 -405z"/>
<path d="M5140 1765 l0 -406 81 3 81 3 -1 130 -2 130 43 42 44 43 129 -175
130 -174 103 -1 103 0 -142 188 c-78 103 -157 205 -175 226 l-32 40 126 140
c69 78 141 158 161 179 l35 37 -106 0 -105 0 -148 -162 c-82 -90 -152 -164
-157 -166 -4 -2 -8 71 -8 162 l0 166 -80 0 -80 0 0 -405z"/>
<path d="M6227 2158 c-3 -7 -45 -110 -95 -228 -72 -174 -206 -498 -229 -557
-4 -10 17 -13 85 -13 l89 0 30 83 30 82 169 3 169 2 33 -85 34 -85 90 0 c68 0
89 3 85 13 -29 66 -311 749 -319 770 -10 26 -12 27 -88 27 -53 0 -80 -4 -83
-12z m149 -358 c24 -63 44 -118 44 -122 0 -4 -51 -8 -114 -8 l-113 0 56 155
56 155 14 -33 c7 -17 33 -84 57 -147z"/>
<path d="M6855 2157 c-3 -6 -4 -188 -3 -402 l3 -390 78 -3 77 -3 0 277 0 276
152 -218 c83 -121 169 -245 191 -276 l41 -58 73 0 73 0 0 405 0 406 -76 -3
-75 -3 1 -264 c0 -146 -3 -261 -7 -257 -4 4 -48 66 -98 136 -49 71 -132 188
-183 260 l-94 130 -74 0 c-51 0 -76 -4 -79 -13z"/>
<path d="M3530 1760 l0 -400 270 0 270 0 0 78 0 77 -185 -3 -185 -3 0 326 0
325 -85 0 -85 0 0 -400z"/>
</g>
</svg>
